# xmcd
#
# Track frame offsets:
#	150
#	12123
#	25080
#	36485
#	49645
#	59741
#	72261
#	86713
#	90507
#	104116
#	116305
#	128848
#	140288
#	152159
#	164279
#	177773
#	189260
#	202595
#	215434
#	227031
#	239269
#	253068
#	266540
#	279083
#	291975
#	305588
#	319038
#	331969
#
# Disc length: 4597
#
# Revision: 1
# Processed by: cddbd v1.5.1PL0 Copyright (c) Steve Scherf et al.
# Submitted via: ExactAudioCopy v0.90b4
# Normalized: r0:DSETVAR1
#
DISCID=8911f31c
DTITLE=Various Artist - TAMLA Motown Gold - Disc 1
DYEAR=1900
DGENRE=
TTITLE0=Barrett Strong - Money (That's What I Want)
TTITLE1=Smokey Robinson and The Miracles - Shop Around
TTITLE2=The Marvelettes - Please Mr. Postman
TTITLE3=The Contours - Do You Love Me
TTITLE4=The Marvelettes - Beechwood 4-5789
TTITLE5=Marvin Gaye - Stubborn Kind Of Fellow
TTITLE6=Stevie Wonder - Fingertips (Part 2)
TTITLE7=Martha Reeves and The Vandellas - (Love Is Like A) Heatwave
TTITLE8=Marvin Gaye - How Sweet It Is (To Be Loved B
TTITLE9=The Temptations - The Way You Do The Things You
TTITLE10=Four Tops - Baby I Need Your Loving
TTITLE11=The Velvelettes - Needle In A Haystack
TTITLE12=Diana Ross and The Supremes - Baby Love
TTITLE13=Martha Reeves and The Vandellas - Dancing In The Street
TTITLE14=Brenda Holloway - Every Little Bit Hurts
TTITLE15=Diana Ross and The Supremes - Where Did Our Love Go
TTITLE16=The Temptations - My Girl
TTITLE17=Mary Wells - My Guy
TTITLE18=The Velvelettes - He Was Really Sayin' Somethin'
TTITLE19=Diana Ross and The Supremes - Come See About Me
TTITLE20=Smokey Robinson and The Miracles - The Tracks Of My Tears
TTITLE21=Martha Reeves and The Vandellas - Nowhere To Run
TTITLE22=Four Tops - I Can't Help Myself (Sugar Pie
TTITLE23=Diana Ross and The Supremes - Stop! In The Name Of Love
TTITLE24=Jnr Walker and The All Stars - Shotgun
TTITLE25=Kim Western - Take Me In Your Arms (Rock Me
TTITLE26=Diana Ross and The Supremes - Back In My Arms Again
TTITLE27=Smokey Robinson and The Miracles - Going To A Go-Go
EXTD=
EXTT0=
EXTT1=
EXTT2=
EXTT3=
EXTT4=
EXTT5=
EXTT6=
EXTT7=
EXTT8=
EXTT9=
EXTT10=
EXTT11=
EXTT12=
EXTT13=
EXTT14=
EXTT15=
EXTT16=
EXTT17=
EXTT18=
EXTT19=
EXTT20=
EXTT21=
EXTT22=
EXTT23=
EXTT24=
EXTT25=
EXTT26=
EXTT27=
PLAYORDER=
